<svg xmlns="http://www.w3.org/2000/svg" viewBox="0 0 1200 800">
  <!-- Background -->
  <rect width="1200" height="800" fill="#f5f7fa" />
  
  <!-- Header -->
  <rect x="0" y="0" width="1200" height="60" fill="#ffffff" stroke="#e2e8f0" />
  <text x="30" y="38" font-family="Arial" font-size="22" font-weight="bold" fill="#334155">HHS Funding Dashboard</text>
  
  <!-- Toggle buttons at top -->
  <rect x="350" y="15" width="500" height="30" rx="15" fill="#e2e8f0" />
  <rect x="350" y="15" width="166" height="30" rx="15" fill="#3b82f6" />
  <text x="405" y="35" font-family="Arial" font-size="14" fill="white" text-anchor="middle">Contracts</text>
  <text x="570" y="35" font-family="Arial" font-size="14" fill="#64748b" text-anchor="middle">Financial Assistance</text>
  <text x="740" y="35" font-family="Arial" font-size="14" fill="#64748b" text-anchor="middle">Combined</text>
  
  <!-- Financial toggle -->
  <rect x="870" y="15" width="280" height="30" rx="15" fill="#e2e8f0" />
  <rect x="870" y="15" width="93" height="30" rx="15" fill="#10b981" />
  <text x="916" y="35" font-family="Arial" font-size="14" fill="white" text-anchor="middle">Allocations</text>
  <text x="1009" y="35" font-family="Arial" font-size="14" fill="#64748b" text-anchor="middle">Deallocations</text>
  <text x="1102" y="35" font-family="Arial" font-size="14" fill="#64748b" text-anchor="middle">All</text>
  
  <!-- Filters Sidebar -->
  <rect x="0" y="60" width="250" height="740" fill="#ffffff" stroke="#e2e8f0" />
  <text x="20" y="90" font-family="Arial" font-size="18" font-weight="bold" fill="#334155">Filters</text>
  
  <!-- Filter Groups -->
  <text x="20" y="125" font-family="Arial" font-size="14" font-weight="bold" fill="#64748b">Emergency Fund</text>
  <rect x="20" y="135" width="210" height="100" rx="4" fill="#f8fafc" stroke="#e2e8f0" />
  <rect x="30" y="145" width="16" height="16" rx="2" fill="#10b981" />
  <text x="56" y="158" font-family="Arial" font-size="13" fill="#334155">CARES Act</text>
  <rect x="30" y="170" width="16" height="16" rx="2" fill="#f8fafc" stroke="#94a3b8" />
  <text x="56" y="183" font-family="Arial" font-size="13" fill="#334155">American Rescue Plan</text>
  <rect x="30" y="195" width="16" height="16" rx="2" fill="#f8fafc" stroke="#94a3b8" />
  <text x="56" y="208" font-family="Arial" font-size="13" fill="#334155">Coronavirus Prep. Act</text>
  
  <text x="20" y="260" font-family="Arial" font-size="14" font-weight="bold" fill="#64748b">Financial Type</text>
  <rect x="20" y="270" width="210" height="75" rx="4" fill="#f8fafc" stroke="#e2e8f0" />
  <rect x="30" y="280" width="16" height="16" rx="2" fill="#10b981" />
  <text x="56" y="293" font-family="Arial" font-size="13" fill="#334155">All Financial Activity</text>
  <rect x="30" y="305" width="16" height="16" rx="2" fill="#f8fafc" stroke="#94a3b8" />
  <text x="56" y="318" font-family="Arial" font-size="13" fill="#334155">Commitments Only</text>
  
  <text x="20" y="365" font-family="Arial" font-size="14" font-weight="bold" fill="#64748b">Top Recipients</text>
  <rect x="20" y="375" width="210" height="125" rx="4" fill="#f8fafc" stroke="#e2e8f0" />
  <rect x="30" y="385" width="16" height="16" rx="2" fill="#f8fafc" stroke="#94a3b8" />
  <text x="56" y="398" font-family="Arial" font-size="13" fill="#334155">Genentech USA, Inc</text>
  <rect x="30" y="410" width="16" height="16" rx="2" fill="#f8fafc" stroke="#94a3b8" />
  <text x="56" y="423" font-family="Arial" font-size="13" fill="#334155">McKesson Corporation</text>
  <rect x="30" y="435" width="16" height="16" rx="2" fill="#10b981" />
  <text x="56" y="448" font-family="Arial" font-size="13" fill="#334155">Loyal Source Govt Services</text>
  <rect x="30" y="460" width="16" height="16" rx="2" fill="#f8fafc" stroke="#94a3b8" />
  <text x="56" y="473" font-family="Arial" font-size="13" fill="#334155">OptumServe Tech Services</text>
  
  <text x="20" y="520" font-family="Arial" font-size="14" font-weight="bold" fill="#64748b">Geography</text>
  
  <!-- Clear Filters Button -->
  <rect x="20" y="730" width="210" height="34" rx="4" fill="#f1f5f9" stroke="#cbd5e1" />
  <text x="125" y="752" font-family="Arial" font-size="14" fill="#334155" text-anchor="middle">Clear All Filters</text>
  
  <!-- Main Content Area -->
  <rect x="250" y="60" width="950" height="740" fill="#ffffff" />
  
  <!-- Summary Metrics -->
  <rect x="280" y="80" width="275" height="120" rx="6" fill="#ffffff" stroke="#e2e8f0" />
  <text x="295" y="105" font-family="Arial" font-size="14" fill="#64748b">Total Allocations</text>
  <text x="295" y="140" font-family="Arial" font-size="28" font-weight="bold" fill="#10b981">$548,645,361</text>
  <text x="295" y="170" font-family="Arial" font-size="14" fill="#64748b">200 transactions</text>
  
  <rect x="570" y="80" width="275" height="120" rx="6" fill="#ffffff" stroke="#e2e8f0" />
  <text x="585" y="105" font-family="Arial" font-size="14" fill="#64748b">Total Deallocations</text>
  <text x="585" y="140" font-family="Arial" font-size="28" font-weight="bold" fill="#ef4444">-$590,236,015</text>
  <text x="585" y="170" font-family="Arial" font-size="14" fill="#64748b">280 transactions</text>
  
  <rect x="860" y="80" width="275" height="120" rx="6" fill="#ffffff" stroke="#e2e8f0" />
  <text x="875" y="105" font-family="Arial" font-size="14" fill="#64748b">Net Change</text>
  <text x="875" y="140" font-family="Arial" font-size="28" font-weight="bold" fill="#ef4444">-$41,590,653</text>
  <text x="875" y="170" font-family="Arial" font-size="14" fill="#64748b">480 total transactions</text>
  
  <!-- Emergency Funding Pie Chart -->
  <rect x="280" y="220" width="550" height="280" rx="6" fill="#ffffff" stroke="#e2e8f0" />
  <text x="300" y="250" font-family="Arial" font-size="16" font-weight="bold" fill="#334155">Emergency Funding Distribution</text>
  <!-- Pie chart -->
  <circle cx="425" cy="360" r="100" fill="none" stroke="#e2e8f0" />
  <path d="M 425 360 L 425 260 A 100 100 0 0 1 516 410 Z" fill="#3b82f6" />
  <path d="M 425 360 L 516 410 A 100 100 0 0 1 425 460 Z" fill="#10b981" />
  <path d="M 425 360 L 425 460 A 100 100 0 0 1 334 410 Z" fill="#f59e0b" />
  <path d="M 425 360 L 334 410 A 100 100 0 0 1 365 290 Z" fill="#8b5cf6" />
  <path d="M 425 360 L 365 290 A 100 100 0 0 1 425 260 Z" fill="#ec4899" />
  <!-- Legend -->
  <rect x="550" y="290" width="16" height="16" fill="#3b82f6" />
  <text x="575" y="304" font-family="Arial" font-size="14" fill="#334155">CARES Act (45%)</text>
  <rect x="550" y="320" width="16" height="16" fill="#10b981" />
  <text x="575" y="334" font-family="Arial" font-size="14" fill="#334155">American Rescue Plan (23%)</text>
  <rect x="550" y="350" width="16" height="16" fill="#f59e0b" />
  <text x="575" y="364" font-family="Arial" font-size="14" fill="#334155">PPP and HCEA (15%)</text>
  <rect x="550" y="380" width="16" height="16" fill="#8b5cf6" />
  <text x="575" y="394" font-family="Arial" font-size="14" fill="#334155">CAA 2021 (12%)</text>
  <rect x="550" y="410" width="16" height="16" fill="#ec4899" />
  <text x="575" y="424" font-family="Arial" font-size="14" fill="#334155">Coronavirus Prep Act (5%)</text>
  
  <!-- US Map -->
  <rect x="845" y="220" width="290" height="280" rx="6" fill="#ffffff" stroke="#e2e8f0" />
  <text x="865" y="250" font-family="Arial" font-size="16" font-weight="bold" fill="#334155">Geographic Distribution</text>
  <!-- Simplified US map outline -->
  <path d="M 890 340 L 905 330 L 925 335 L 945 325 L 965 330 L 980 325 L 1000 335 L 1020 330 L 1040 340 L 1060 335 L 1075 345 L 1090 340 L 1100 355 L 1090 370 L 1080 380 L 1060 390 L 1040 380 L 1020 385 L 1000 375 L 980 380 L 960 370 L 940 380 L 920 375 L 900 365 L 890 350 Z" fill="#dbeafe" stroke="#93c5fd" />
  <!-- Highlighted states -->
  <path d="M 945 325 L 965 330 L 980 325 L 980 380 L 960 370 L 940 380 Z" fill="#3b82f6" stroke="#93c5fd" />
  <path d="M 1000 335 L 1020 330 L 1040 340 L 1040 380 L 1020 385 L 1000 375 Z" fill="#60a5fa" stroke="#93c5fd" />
  <path d="M 1060 335 L 1075 345 L 1090 340 L 1090 370 L 1080 380 L 1060 390 Z" fill="#2563eb" stroke="#93c5fd" />
  <!-- Legend -->
  <rect x="880" y="420" width="16" height="16" fill="#dbeafe" />
  <text x="905" y="433" font-family="Arial" font-size="12" fill="#334155">< $10M</text>
  <rect x="970" y="420" width="16" height="16" fill="#60a5fa" />
  <text x="995" y="433" font-family="Arial" font-size="12" fill="#334155">$10M - $50M</text>
  <rect x="1060" y="420" width="16" height="16" fill="#2563eb" />
  <text x="1085" y="433" font-family="Arial" font-size="12" fill="#334155">> $50M</text>
  
  <!-- Top Recipients Bar Chart -->
  <rect x="280" y="520" width="550" height="240" rx="6" fill="#ffffff" stroke="#e2e8f0" />
  <text x="300" y="550" font-family="Arial" font-size="16" font-weight="bold" fill="#334155">Top Recipients by Allocation Amount</text>
  <!-- Bars -->
  <rect x="350" y="570" width="420" height="24" fill="#10b981" />
  <rect x="350" y="605" width="280" height="24" fill="#10b981" />
  <rect x="350" y="640" width="205" height="24" fill="#10b981" />
  <rect x="350" y="675" width="140" height="24" fill="#10b981" />
  <rect x="350" y="710" width="90" height="24" fill="#10b981" />
  <!-- Labels -->
  <text x="340" y="586" font-family="Arial" font-size="13" fill="#334155" text-anchor="end">Genentech USA, Inc</text>
  <text x="340" y="621" font-family="Arial" font-size="13" fill="#334155" text-anchor="end">Loyal Source</text>
  <text x="340" y="656" font-family="Arial" font-size="13" fill="#334155" text-anchor="end">OptumServe</text>
  <text x="340" y="691" font-family="Arial" font-size="13" fill="#334155" text-anchor="end">McKesson Corp</text>
  <text x="340" y="726" font-family="Arial" font-size="13" fill="#334155" text-anchor="end">Caduceus Healthcare</text>
  <!-- Values -->
  <text x="780" y="586" font-family="Arial" font-size="13" fill="#ffffff">$348,503,214</text>
  <text x="640" y="621" font-family="Arial" font-size="13" fill="#ffffff">$24,404,860</text>
  <text x="565" y="656" font-family="Arial" font-size="13" fill="#ffffff">$12,038,335</text>
  <text x="500" y="691" font-family="Arial" font-size="13" fill="#ffffff">$10,920,816</text>
  <text x="450" y="726" font-family="Arial" font-size="13" fill="#ffffff">$9,283,531</text>

  <!-- Data Table Preview -->
  <rect x="845" y="520" width="290" height="240" rx="6" fill="#ffffff" stroke="#e2e8f0" />
  <text x="865" y="550" font-family="Arial" font-size="16" font-weight="bold" fill="#334155">Transaction Details</text>
  <!-- Table Header -->
  <rect x="855" y="565" width="270" height="30" fill="#f1f5f9" />
  <text x="865" y="585" font-family="Arial" font-size="12" font-weight="bold" fill="#334155">Recipient</text>
  <text x="1025" y="585" font-family="Arial" font-size="12" font-weight="bold" fill="#334155">Amount</text>
  <!-- Table Rows -->
  <line x1="855" y1="595" x2="1125" y2="595" stroke="#e2e8f0" />
  <text x="865" y="615" font-family="Arial" font-size="12" fill="#334155">Genentech USA, Inc</text>
  <text x="1095" y="615" font-family="Arial" font-size="12" fill="#10b981" text-anchor="end">$348,503,214</text>
  <line x1="855" y1="625" x2="1125" y2="625" stroke="#e2e8f0" />
  <text x="865" y="645" font-family="Arial" font-size="12" fill="#334155">Loyal Source Govt Services</text>
  <text x="1095" y="645" font-family="Arial" font-size="12" fill="#10b981" text-anchor="end">$24,404,860</text>
  <line x1="855" y1="655" x2="1125" y2="655" stroke="#e2e8f0" />
  <text x="865" y="675" font-family="Arial" font-size="12" fill="#334155">OptumServe Tech Services</text>
  <text x="1095" y="675" font-family="Arial" font-size="12" fill="#10b981" text-anchor="end">$12,038,335</text>
  <line x1="855" y1="685" x2="1125" y2="685" stroke="#e2e8f0" />
  <!-- Show more link -->
  <text x="990" y="710" font-family="Arial" font-size="12" fill="#3b82f6" text-anchor="middle">Show all transactions</text>
  <rect x="865" y="725" width="120" height="25" rx="4" fill="#f8fafc" stroke="#e2e8f0" />
  <text x="925" y="742" font-family="Arial" font-size="12" fill="#334155" text-anchor="middle">Export Data</text>

  <!-- Active Filters Banner -->
  <rect x="250" y="60" width="950" height="0" fill="#f1f5f9" />
  <rect x="260" y="66" width="140" height="24" rx="12" fill="#e0f2fe" />
  <text x="330" y="82" font-family="Arial" font-size="12" fill="#0369a1" text-anchor="middle">CARES Act</text>
  <rect x="410" y="66" width="180" height="24" rx="12" fill="#e0f2fe" />
  <text x="500" y="82" font-family="Arial" font-size="12" fill="#0369a1" text-anchor="middle">Loyal Source Govt Services</text>
</svg>
